<svg width="128" height="128" viewBox="0 0 128 128" fill="none" xmlns="http://www.w3.org/2000/svg">
<path d="M104 4H24C12.952 4 4 12.954 4 24V104C4 115.046 12.954 124 24 124H104C115.046 124 124 115.046 124 104V24C124 12.954 115.046 4 104 4Z" fill="#EE3465"/>
<path d="M87.0122 98.5854L98.5822 87.0122C99.363 86.2311 99.3629 84.965 98.582 84.184L78.398 64L98.582 43.8122C99.363 43.0311 99.3629 41.7649 98.5819 40.9839L87.0121 29.4141C86.2311 28.6331 84.9648 28.633 84.1838 29.414L63.996 49.598L43.814 29.4141C43.033 28.6331 41.7668 28.633 40.9857 29.4139L29.4125 40.9839C28.6313 41.7648 28.6312 43.0313 29.4123 43.8124L49.598 64L29.4123 84.1838C28.6312 84.9648 28.6312 86.2312 29.4123 87.0123L40.9856 98.5856C41.7667 99.3667 43.0332 99.3666 43.8142 98.5854L63.996 78.398L84.1836 98.5856C84.9647 99.3667 86.2312 99.3666 87.0122 98.5854Z" fill="white"/>
</svg>
