<?xml version="1.0" encoding="UTF-8"?>
<svg viewBox="0 0 14 16" xmlns="http://www.w3.org/2000/svg">
<path d="m7.3856 0.32453c-0.17927-0.17924-0.46989-0.17924-0.64916 0l-5.6754 5.6746c-0.586 0.58591-0.58603 1.5359-8e-5 2.1219 0.58597 0.58597 1.536 0.58592 2.1219-1e-4l3.4438-3.4446c0.23981-0.23986 0.62867-0.23986 0.86848 0l3.4439 3.4446c0.5859 0.58602 1.5359 0.58607 2.1219 1e-4 0.586-0.58595 0.5859-1.536-1e-4 -2.1219l-5.6753-5.6746z" fill="#000"/>
<path d="m1.0611 12.999c-0.586 0.5859-0.58603 1.5359-8e-5 2.1219 0.58597 0.5859 1.536 0.5859 2.1219-1e-4l3.4438-3.4446c0.23981-0.2398 0.62867-0.2398 0.86848 0l3.4439 3.4446c0.5859 0.586 1.5359 0.5861 2.1219 1e-4s0.5859-1.536-1e-4 -2.1219l-5.6753-5.6746c-0.17927-0.17924-0.46989-0.17924-0.64916 0l-5.6754 5.6746z" fill="#000"/>
</svg>
