<svg width="128" height="128" viewBox="0 0 128 128" fill="none" xmlns="http://www.w3.org/2000/svg">
<path d="M64 124C97.1371 124 124 97.1371 124 64C124 30.8629 97.1371 4 64 4C30.8629 4 4 30.8629 4 64C4 97.1371 30.8629 124 64 124Z" fill="#3DDC84"/>
<path d="M93.434 29.475C92.6486 28.6672 91.3514 28.6672 90.566 29.475L50 71.2L37.434 58.275C36.6486 57.4672 35.3514 57.4672 34.566 58.275L23.3554 69.8058C22.6008 70.5821 22.6007 71.8179 23.3554 72.5942L48.566 98.525C49.3514 99.3328 50.6486 99.3328 51.434 98.525L104.645 43.7942C105.399 43.0179 105.399 41.7821 104.645 41.0058L93.434 29.475Z" fill="white"/>
</svg>
